<?xml version="1.0" encoding="UTF-8"?>
<svg xmlns="http://www.w3.org/2000/svg" xmlns:xlink="http://www.w3.org/1999/xlink" version="1.1" viewBox="0 0 2500 1600">
  <!-- Generator: Adobe Illustrator 29.8.2, SVG Export Plug-In . SVG Version: 2.1.1 Build 3)  -->
  <defs>
    <style>
      .st0 {
        fill: none;
      }

      .st1 {
        mix-blend-mode: multiply;
        opacity: .2;
      }

      .st2 {
        isolation: isolate;
      }

      .st3 {
        fill: #c12126;
      }

      .st4 {
        clip-path: url(#clippath);
      }
    </style>
    <clipPath id="clippath">
      <rect class="st0" width="2503.3" height="1600"/>
    </clipPath>
  </defs>
  <g class="st2">
    <g id="Layer_1">
      <rect class="st3" width="2503.3" height="1600"/>
      <g class="st1">
        <g class="st4">
          <g>
            <path d="M2425.2,1141.7c-3.1-.6-6.5-.9-10.3-.9-2.9,0-6,.2-9.3.5-7.5,1.2-13.8,3.4-18.4,6.6-5.2,2.6-7.6,5.6-7.3,8.8.8,2.6,3.7,5.1,9.2,6.2,2.8.6,5.8.8,9,.8,3.3,0,6.8-.3,10.5-1,7.5-.7,13.8-2.9,19-6.1,4.6-2.6,7.1-5.5,6.8-8.8-.8-2.6-3.7-4.5-9.3-6.2Z"/>
            <path d="M2311.5,1185.7c-1.8-4.2-4.4-.7-4.4-.7-11.2,21.3-34.5,28.8-45,29.6-3.8.3-5.1,2.9-3.3,5.2,4.8,4.5,9.9,7.2,16,8.8,8.3,2,16.3.1,24-4.4,7.1-5,12-11.4,13.9-19.7,1.6-6.7,1-12.6-1.2-18.9Z"/>
            <path d="M2465.5,1771.7c-15,.6-27,5.9-26.8,11.7.2,5.8,12.6,10,27.7,9.4,15-.6,27-5.9,26.8-11.7-.2-5.8-12.6-10-27.7-9.4Z"/>
            <path d="M2308.6,1746.6c-.8,1.6,0,4.4,3.7,4.5,16.2.2,38.3,9.5,49.7,21,1.7,1.3,4,.8,4.7-2.1.6-13-21.8-57.5-58-23.4Z"/>
            <path d="M2140.6,1470.6c8.1-.2,15-1.9,21.2-5.7,8.8-5.1,13.6-11.6,15-20.4,1.4-8.8-1-17.3-7.6-24.3-4.9-5.5-12.3-10.5-18.5-11.9-3.8-.9-5.7,1.7-2.7,11.6,3,9.9-.2,33.1-10.4,46.5-1.2,2.5.5,4.2,3.1,4.1Z"/>
            <path d="M2168.4,1306.3c8.8.8,16.6-2.1,23.2-7.6,6.5-6,10.2-13.4,11-22.2.5-6.6-1.1-12.4-4.3-17.5-1.2-1.8-2.9-1.9-3.9-.7,0,0-16.8,27.1-40.6,36.3-1.9.7-4.9,2.5-2.2,5.6,2.7,3.1,10.3,6.1,16.8,6.1Z"/>
            <path d="M2087.1,1467.4c-1.8,0-3.9,2.1-2.1,5.4,7.8,14.2,10.7,38,6.3,53.5-.4,2.1,1.3,3.9,4.1,3.1,23.8-11,39.3-47.4-8.3-62Z"/>
            <path d="M2191,1607.8c14.7,6.9,31,24.4,36.7,39.5,1,1.9,3.3,2.3,5.1,0,14.7-18.3,12.2-70.6-43.3-45.2-1.4,1.1-1.9,4,1.5,5.7Z"/>
            <path d="M2117.8,1392.9c26.5-10.2,19-36.8,15-44.6-2.7-6.3-12.7-20.7-14.6-9.7.4,16.2-4.7,31.4-15.4,45.4,0,0-2.9,4.1-3.3,5.2-1.4,2.8-.7,11.1,18.3,3.8Z"/>
            <path d="M2212,1366.9c8.1-20-1.8-36.4-8.8-42.1-2.9-2.4-4.9-.6-6.3,1.7-.4,1.7-.8,2.8-1.2,4.5l-.4,1.7c-3.8,17.7-16.8,30.9-28.4,40-1.2,1-.8,2.7,2,4.2,6.8,3.2,14.5,4.1,21.4,2.9,10.2-.9,17.4-5.4,21.6-12.8Z"/>
            <path d="M2120.5,1596.9c-1.6.8-2.7,3.5.3,5.8,13,9.8,25.3,30.3,27.7,46.3.5,2.1,2.6,3.7,5,1.1,8.2-10.2,16.5-59.3-32.9-53.2Z"/>
            <path d="M2144.1,1520.2c-1.6.6-3,2.9-.5,5.5,10.9,10.9,19.8,32,19.9,47.3.2,2,2.2,3.2,4.6,1.7,19.2-11.6,34-59.2-23.9-54.6Z"/>
            <path d="M2188.9,1683.8c-2.2,1.9-.8,4.3,2.8,5.1,16,3,36.1,16,45.3,29.2,1.4,1.6,3.8,1.4,5-1.2,2.8-12.7-11.5-60.4-53.1-33.1Z"/>
            <g>
              <path d="M2899.2,1240.2c-27.2-61.8-64.4-118.2-109.6-167.1-.5.4-1,.9-1.6,1.3-219.1-238.2-589.1-261.9-836.8-49.7-193.9,166-256.4,428.3-177.9,655.8-.2.2-.4.4-.6.5,22.7,65.8,56.4,126.5,98.9,179.8,110.9,139,281.7,228.1,473.3,228.1,334.2,0,605.2-271,605.2-605.2s-18.2-168.9-51-243.4ZM2318.6,1138.4c-7.4,1.8-13.4,2.3-18.9,1.2-5.5-1.1-9-3.5-9.8-6.7-.8-3.2,1.1-7.1,5.6-10.3,4.6-3.1,10.6-5.3,17.5-7.1,20.8-4.7,28.2,2.3,28.5,5.6.8,3.2-4.6,12.5-22.8,17.3ZM2207.8,1137.2c-3.5.7-6.1.7-7.8.1,14.4-6,29.2-11.1,44.1-15.2-4.3,2.9-9.5,6.3-16.2,8.8-7.3,3.4-14.1,5.6-20.1,6.2ZM2207.6,1188.7c-3.9,5.2-8.9,10-16.1,14-6.6,4.4-13.5,6.7-20,7.3-6.4,1.1-10.3-.1-12.3-3.8-1.9-3.1-1.2-6.9,2.7-12.2,3.3-5.2,8.8-10,16-14.5,6.7-3.9,13.5-6.7,20-7.3,5.9-.5,10.4.7,12.3,3.8,1.9,3.1.7,7.5-2.6,12.7ZM2001.1,1352c.5-6,2.6-12.7,5.8-20.1,3.1-7.3,6.4-13.1,10.3-17.8,2.8-4.6,5.4-6.5,7.6-6.1,2.3.9,2.5,4.1,1.5,10.2-.6,5.5-2.7,12.2-6.3,19.6-3.1,7.3-6.3,13.6-9.7,18.3-3.4,4.6-5.9,6.5-8.2,5.6-1.7-.9-2-4.2-.9-9.7ZM2029.9,1648.4c2.1-.7,4.9.6,9.1,4.6,4.2,4,8.4,9,12.8,15.6,4.5,7.2,7.7,12.9,9.8,18.1,1.6,5.8,1.9,9.1.4,10.3-1.5,1.2-8.6-.7-21.9-20.2-15.9-23.3-11.7-27.1-10.2-28.4ZM2072.3,1601.1c-.5,6-2.9,10-6,11.4-3.7.9-7.6-.4-11.9-5.4-4.8-4.5-8-10.7-10.4-18.6-2.8-7.3-4.1-14.8-3.5-20.8,1-6.6,2.3-10,6-11.4,3.7-.9,7.7.9,11.8,4.9,4.8,5,8.1,11.2,10.9,18.5,2.4,7.9,3.5,14.9,3.1,21.4ZM2036.9,1451.8c-3.9-.7-5.8-3.8-8-10.1-1.6-5.8-1.7-12.9-.3-21.1.9-8.2,3-14.9,6.8-20.2,3.3-5.2,6.9-7.7,10.7-7.5,3.3.8,6.4,4.3,8,10.1,1.7,6.4,1.8,13.4.9,21.6-1.5,7.7-7.4,24.6-18.1,27.2ZM2104,1207.4c-6,5.4-11.6,9.2-16.8,11.9-5.1,3.2-8.4,3.5-9.6,2-.3-.3-.4-.6-.5-1,7.4-7.4,15-14.7,23.1-21.6,6.5-5.6,13.2-10.8,19.9-15.8.2.1.6.1.7.3,1.8,1.5.4,4.3-3,9-3.3,5.2-7.8,9.9-13.8,15.4ZM2081.2,1307.8c-5.2,4.2-10.5,4.4-12.3,1.7-10.6-16.8,24.6-55.7,34.7-47.7,5.8,4.2,1.9,26.1-22.4,46ZM2146.6,1731c-2.4,2.9-6.8,3.3-12.4,1.1-6.1-1.6-11.9-5.4-17.9-11.4-5.9-5.4-10.2-11-12.9-16.7-2.2-6.3-2.1-10.7.4-13.6,2.5-2.4,6.8-2.8,12.4-.6,13.3,5.3,28.2,22.9,30.8,28.7,2.2,5.8,2,10.1-.5,12.5ZM2158.2,1781.5c6.9,4.3,12.2,8.7,16.4,12.6,4.2,4.5,5.5,7.1,4.6,8.8-.9,1.7-4.2,1.5-9.8-.2-5.6-1.7-11.8-4.9-18.7-8.6-6.9-4.3-12.2-8.7-16.3-12.6-4.2-4-5.5-7.1-4.6-8.8,1-1.2,4.2-1.5,9.8.2,5.6,1.7,11.3,4.9,18.7,8.6ZM2267,1796c-1.3,3.4-5.4,5.9-11.4,5.9-6.5.6-13.7-.9-20.9-3.5-7.9-3.1-14.1-6.3-18.4-11.3-4.7-3.9-6.2-8.1-4.9-11.5,1.3-3.4,4.9-5.3,11.4-5.9,6.5-.6,13.6.4,20.9,3.5,7.8,2.5,13.6,6.4,18.4,10.8,4.2,4.5,6.2,8.7,4.9,12ZM2273,1831.8c6,0,13.1,1,20.8,2.4,7.8,2,14,4.7,19.1,6.9,5.7,2.7,8,4.7,7.2,6.9-.4,1.7-3.5,3-9.5,3-5.4,0-12-1.1-20.4-3-7.7-1.5-13.9-3.6-19.6-6.3-5.1-2.8-7.5-4.7-7.2-6.9.9-1.7,4.1-3.1,9.5-3ZM2398.1,1834.5c-5.2,2.1-11.7,2.7-18.7,2.8-7.6-.4-13.8-2-18.8-4.2-4.6-2.8-7.6-5.8-7.3-9.1.2-3.3,3.3-5.7,8.5-7.8,5.2-2.1,11.1-3.2,18.7-2.8,7.1.4,13.7,1.5,18.3,4.3,5.1,2.2,7.5,5.3,7.3,8.6.3,3.8-2.6,6.8-7.9,8.3ZM2506.4,1818.4c-18.8,5.9-39.3,8.1-60.2,2.4-5.6-1.7-18.2-8.6-37.1-19.4-12.6-7.5-23.8-10.8-33.5-10-5.4.5-11.7,2.2-19,5.5-7.9,2.9-13.6,5-18,4.9-13.5,1.2-27.2-6.2-41.6-22.2-2.5-3-5.5-7.1-8.1-11.7-10.1-15.9-20.7-24.7-31.8-26.9-11-1.7-41.2.5-47.1,1.6-22.9,2-34.5-14.8-39-28.5-5-13.1-9.7-23.5-15.2-30.1-6-6.5-15.8-12.1-31.4-17.2-15.1-4.6-24.5-12.4-27.6-22.4-2.5-10.1-2.6-28,1.5-54.9,1.5-15.1-9.9-36.5-23.1-50.5-7.2-7.5-13.2-14-18.7-20-11.1-12.9-4.9-29.4-3-32.8,4.2-7.4,8.4-15.3,14.7-23.6,29.9-39.1-.2-90,2.1-107.6,1.2-10.4,9-19.8,23-27.1,14.5-7.8,23-15.1,27.7-23.2,4.2-7.4,7-18,9.6-31.8,2-14.3,13.2-34.1,49.4-35.5,9.7-.9,20.3-3,30.8-7.2,11-4.3,19.3-14.3,25.4-31.1,2.2-5.1,4.5-10.2,6.4-13.6,11.3-18.4,23.5-28.2,36.9-30,4.3-.4,10.4.7,18.6,2.1,7.8,2,14.3,2.5,19.7,2,9.7-.9,20.1-6.2,31.1-15.9,29.4-28.5,47.1-30.4,56.5-30,83.9,13.9,163.5,56.2,223.1,125.6,31.9,37.3,55.2,79.1,70.1,122.9,12.3,37.1,18.9,76.8,18.9,118.1,0,148.5-86.1,276.9-211.1,337.9Z"/>
              <path d="M2343.7,469.5c-558.9,0-1012,453.1-1012,1012s453.1,1012,1012,1012,1012-453.1,1012-1012-453.1-1012-1012-1012ZM2343.7,2248c-423.3,0-766.5-343.2-766.5-766.5s343.2-766.5,766.5-766.5,766.5,343.2,766.5,766.5-343.2,766.5-766.5,766.5Z"/>
            </g>
          </g>
        </g>
      </g>
    </g>
  </g>
</svg>