<?xml version="1.0" encoding="utf-8"?>
<!-- Generator: Adobe Illustrator 26.0.0, SVG Export Plug-In . SVG Version: 6.00 Build 0)  -->
<svg version="1.1" xmlns="http://www.w3.org/2000/svg" xmlns:xlink="http://www.w3.org/1999/xlink" x="0px" y="0px"
	 viewBox="0 0 100 100" style="enable-background:new 0 0 100 100;" xml:space="preserve">
<style type="text/css">
	.st0{fill:#C12126;}
</style>
<g id="Layer_2">
</g>
<g id="Layer_1">
	<g>
		<path class="st0" d="M96.7,51.9c1-1,1-2.7,0-3.7l-7.3-7.3c-0.7-0.7-0.9-1.6-0.7-2.5l2.7-10.1c0.4-1.4-0.5-2.8-1.8-3.2l-10-2.7
			c-0.9-0.2-1.6-0.9-1.8-1.8L75,10.5c-0.4-1.4-1.8-2.2-3.2-1.8l-10,2.7c-0.9,0.2-1.9,0-2.5-0.7l-7.4-7.4c-1-1-2.7-1-3.7,0l-7.3,7.3
			c-0.7,0.7-1.6,0.9-2.5,0.7L28.3,8.6c-1.4-0.4-2.8,0.5-3.2,1.8l-2.7,10c-0.2,0.9-0.9,1.6-1.8,1.8L10.5,25c-1.4,0.4-2.2,1.8-1.8,3.2
			l2.7,10c0.2,0.9,0,1.9-0.7,2.5l-7.4,7.4c-1,1-1,2.7,0,3.7l7.3,7.3c0.7,0.7,0.9,1.6,0.7,2.5L8.6,71.7c-0.4,1.4,0.5,2.8,1.8,3.2
			l10,2.7c0.9,0.2,1.6,0.9,1.8,1.8L25,89.5c0.4,1.4,1.8,2.2,3.2,1.8l10-2.7c0.9-0.2,1.9,0,2.5,0.7l7.4,7.4c1,1,2.7,1,3.7,0l7.3-7.3
			c0.7-0.7,1.6-0.9,2.5-0.7l10.1,2.7c1.4,0.4,2.8-0.5,3.2-1.8l2.7-10c0.2-0.9,0.9-1.6,1.8-1.8L89.5,75c1.4-0.4,2.2-1.8,1.8-3.2
			l-2.7-10c-0.2-0.9,0-1.9,0.7-2.5L96.7,51.9z M38,31.7c3.5,0,6.3,2.8,6.3,6.3s-2.8,6.3-6.3,6.3s-6.3-2.8-6.3-6.3S34.5,31.7,38,31.7
			z M39.8,65.6c-0.8,0.8-1.7,1.1-2.7,1.1s-2-0.4-2.7-1.1c-1.5-1.5-1.5-3.9,0-5.4l25.8-25.8c1.5-1.5,3.9-1.5,5.4,0s1.5,3.9,0,5.4
			L39.8,65.6z M62,68.3c-3.5,0-6.3-2.8-6.3-6.3c0-3.5,2.8-6.3,6.3-6.3s6.3,2.8,6.3,6.3C68.3,65.5,65.5,68.3,62,68.3z"/>
	</g>
</g>
</svg>
