<?xml version="1.0" encoding="utf-8"?>
<!-- Generator: Adobe Illustrator 26.0.0, SVG Export Plug-In . SVG Version: 6.00 Build 0)  -->
<svg version="1.1" xmlns="http://www.w3.org/2000/svg" xmlns:xlink="http://www.w3.org/1999/xlink" x="0px" y="0px"
	 viewBox="0 0 100 100" style="enable-background:new 0 0 100 100;" xml:space="preserve">
<style type="text/css">
	.st0{fill:#C12126;}
</style>
<g id="Layer_2">
</g>
<g id="Layer_1">
	<g>
		<path class="st0" d="M91.1,3.7c-1.1-1.1-3-1-3.9,0.3l-24,32.9l0,0L52.4,51.3l-8-10.7c3.5-3.3,4.1-8.8,1.2-12.8L28.1,3.7
			c-0.9-1.3-2.8-1.6-4.1-0.6c-1.3,0.9-1.6,2.8-0.6,4.1L37.8,27c0.4,0.6,0.3,1.4-0.3,1.9L35,30.7c-0.6,0.4-1.4,0.3-1.9-0.3L18.7,10.5
			c-0.9-1.3-2.8-1.6-4.1-0.6C13.3,10.8,13,12.7,14,14l14.4,19.8c0.4,0.6,0.3,1.4-0.3,1.9l-2.5,1.8c-0.6,0.4-1.4,0.3-1.9-0.3
			L9.3,17.4c-0.9-1.3-2.8-1.6-4.1-0.6c-1.3,0.9-1.6,2.8-0.6,4.1l17.4,24c3,4.1,8.6,5.2,12.9,2.6l9.8,14L25.8,86.7
			c-2.3,3-1.6,7.3,1.4,9.5l0,0c3,2.2,7.3,1.5,9.5-1.6l15.7-22.3l15.7,22.3c2.2,3.1,6.4,3.8,9.5,1.6l0,0c3-2.2,3.7-6.5,1.4-9.5
			L60,61.5l6.4-9.1l2.2,1.6c3.8,2.7,9.1,1.7,11.6-2.2l5.3-8.3c4.6-7.2,7.9-15,9.9-23.2C97,14.3,95.3,8,91.1,3.7z"/>
	</g>
</g>
</svg>
