<?xml version="1.0" encoding="utf-8"?>
<!-- Generator: Adobe Illustrator 26.0.0, SVG Export Plug-In . SVG Version: 6.00 Build 0)  -->
<svg version="1.1" id="Layer_1" xmlns="http://www.w3.org/2000/svg" xmlns:xlink="http://www.w3.org/1999/xlink" x="0px" y="0px"
	 viewBox="0 0 100 100" style="enable-background:new 0 0 100 100;" xml:space="preserve">
<style type="text/css">
	.st0{fill:#C12126;}
</style>
<path class="st0" d="M49.2,100c-1-0.5-1.8-1.2-2.4-2.2c-9.3-13.2-18.6-26.2-27.9-39.4c-3.5-5.1-5.6-11-6.2-17.1
	c-1.6-16,7.1-31.4,21.8-37.7c14.2-6.2,27.7-4.3,39.7,5.6c7.3,6,12,14.6,12.9,24c1.2,9.4-1.3,18.8-6.8,26.4c-9,12.7-18,25.4-27,38.1
	c-0.6,1-1.5,1.9-2.6,2.4H49.2z M62.5,37.6c0-6.9-5.5-12.5-12.4-12.5c-6.9,0-12.5,5.5-12.5,12.4c0,6.8,5.4,12.4,12.3,12.5
	C56.7,50.2,62.4,44.6,62.5,37.6C62.5,37.7,62.5,37.7,62.5,37.6z"/>
</svg>
